<svg width="13" height="13" viewBox="0 0 13 13" fill="none" xmlns="http://www.w3.org/2000/svg">
<path d="M6.5 0C2.91778 0 0 2.91778 0 6.5C0 10.0822 2.91778 13 6.5 13C10.0822 13 13 10.0822 13 6.5C13 2.91778 10.0822 0 6.5 0ZM6.5 12.4222C3.23556 12.4222 0.577778 9.76445 0.577778 6.5C0.577778 3.23556 3.23556 0.577778 6.5 0.577778C9.76445 0.577778 12.4222 3.23556 12.4222 6.5C12.4222 9.76445 9.76445 12.4222 6.5 12.4222ZM6.57222 2.88889C4.53556 2.88889 2.88889 4.50667 2.88889 6.5C2.88889 6.65889 2.75889 6.78889 2.6 6.78889C2.44111 6.78889 2.31111 6.65889 2.31111 6.5C2.31111 4.18889 4.21778 2.31111 6.57222 2.31111C7.29444 2.31111 8.01667 2.49889 8.66667 2.84556C8.81111 2.91778 8.85445 3.09111 8.78222 3.23556C8.71 3.38 8.53667 3.42333 8.39222 3.35111C7.82889 3.04778 7.19333 2.88889 6.57222 2.88889ZM10.8333 6.5C10.8333 6.65889 10.7033 6.78889 10.5444 6.78889C10.3856 6.78889 10.2556 6.65889 10.2556 6.5C10.2556 5.90778 10.1111 5.33 9.82222 4.82444C9.75 4.68 9.79333 4.50667 9.93778 4.43444C10.0822 4.36222 10.2556 4.40556 10.3278 4.55C10.66 5.12778 10.8333 5.80667 10.8333 6.5ZM9.72111 3.97222L7.29444 6.16778C7.33778 6.26889 7.36667 6.38444 7.36667 6.5C7.36667 6.97667 6.97667 7.36667 6.5 7.36667C6.02333 7.36667 5.63333 6.97667 5.63333 6.5C5.63333 6.02333 6.02333 5.63333 6.5 5.63333C6.64444 5.63333 6.78889 5.67667 6.91889 5.73444L9.34556 3.53889C9.46111 3.43778 9.64889 3.43778 9.75 3.55333C9.85111 3.68333 9.85111 3.85667 9.72111 3.97222ZM8.66667 9.67778C8.66667 9.83667 8.53667 9.96667 8.37778 9.96667H4.62222C4.46333 9.96667 4.33333 9.83667 4.33333 9.67778C4.33333 9.51889 4.46333 9.38889 4.62222 9.38889H8.37778C8.53667 9.38889 8.66667 9.51889 8.66667 9.67778Z" fill="white"/>
</svg>
