<svg width="12" height="12" viewBox="0 0 12 12" fill="none" xmlns="http://www.w3.org/2000/svg">
<path fill-rule="evenodd" clip-rule="evenodd" d="M5.59322 9.71053C5.59322 9.92853 5.82087 10.1053 6.10169 10.1053C6.38252 10.1053 6.61017 9.92853 6.61017 9.71053V4.34211C6.61017 4.1241 6.38252 3.94737 6.10169 3.94737C5.82087 3.94737 5.59322 4.1241 5.59322 4.34211V9.71053ZM9.79714 10.7945C9.79435 10.8464 9.72924 10.8947 9.65982 10.8947H2.54357C2.47549 10.8947 2.40898 10.8453 2.40625 10.7945L2.03328 3.84541C2.01691 3.54047 1.68521 3.30356 1.2924 3.31627C0.899588 3.32897 0.59442 3.58648 0.610787 3.89143L0.983758 10.8405C1.01828 11.4838 1.71282 12 2.54357 12H9.65982C10.4918 12 11.185 11.4849 11.2196 10.8405L11.5926 3.89143C11.609 3.58648 11.3038 3.32897 10.911 3.31627C10.5182 3.30356 10.1865 3.54047 10.1701 3.84541L9.79714 10.7945ZM3.45785 9.72213C3.4661 9.94004 3.70035 10.1115 3.98105 10.1051C4.26175 10.0987 4.48261 9.91683 4.47436 9.69892L4.27097 4.3305C4.26271 4.11259 4.02846 3.94113 3.74776 3.94754C3.46706 3.95395 3.2462 4.1358 3.25446 4.35371L3.45785 9.72213ZM7.72903 9.69892C7.72078 9.91683 7.94164 10.0987 8.22234 10.1051C8.50304 10.1115 8.73729 9.94004 8.74554 9.72213L8.94893 4.35371C8.95719 4.1358 8.73633 3.95395 8.45563 3.94754C8.17493 3.94113 7.94068 4.11259 7.93242 4.3305L7.72903 9.69892ZM11.2881 1.65789C11.6813 1.65789 12 1.90532 12 2.21053C12 2.51574 11.6813 2.76316 11.2881 2.76316H0.711864C0.318713 2.76316 0 2.51574 0 2.21053C0 1.90532 0.318713 1.65789 0.711864 1.65789H3.28318L3.48484 1.03168C3.67306 0.447189 4.4099 0 5.18567 0H6.81433C7.59018 0 8.32684 0.446903 8.51516 1.03168L8.71682 1.65789H11.2881ZM7.24928 1.65789L7.13394 1.29974C7.10401 1.20681 6.93663 1.10526 6.81433 1.10526H5.18567C5.06357 1.10526 4.89592 1.20701 4.86606 1.29974L4.75072 1.65789H7.24928Z" fill="#0086AF"/>
</svg>
