<svg width="10" height="12" viewBox="0 0 10 12" fill="none" xmlns="http://www.w3.org/2000/svg">
<path fill-rule="evenodd" clip-rule="evenodd" d="M0.225777 10.2629C-0.074649 10.5856 -0.074649 11.1083 0.225777 11.4309C0.526203 11.7534 1.01323 11.7534 1.31351 11.4309L5.00006 7.47282L8.68694 11.4309C8.98724 11.7533 9.47426 11.7533 9.77468 11.4309C10.0751 11.1083 10.0751 10.5854 9.77468 10.2629L6.0878 6.30483L9.77435 2.34677C10.0746 2.02436 10.0746 1.50147 9.77435 1.17893C9.47392 0.856374 8.9869 0.856374 8.68648 1.17893L4.99993 5.13698L1.31305 1.17893C1.01275 0.856374 0.525732 0.856374 0.225316 1.17893C-0.0751003 1.50148 -0.0751102 2.02437 0.225316 2.34677L3.9122 6.30483L0.225777 10.2629Z" fill="#0086AF"/>
</svg>
