<svg width="14" height="13" viewBox="0 0 14 13" fill="none" xmlns="http://www.w3.org/2000/svg">
<path d="M6.55657 10.3109L12.6284 5.09606C12.9488 4.82085 13.1253 4.45502 13.1253 4.06599C13.1253 3.67677 12.9488 3.31094 12.6284 3.03592L10.681 1.36324C10.0196 0.795132 8.94358 0.794738 8.28211 1.36324L2.21034 6.57806C1.70016 7.01623 1.33029 7.56351 1.14077 8.16091L0.0167327 11.7005C-0.065995 11.9451 0.169585 12.2163 0.469003 12.209H12.6565C12.9154 12.209 13.1253 12.0288 13.1253 11.8064C13.1253 11.5841 12.9154 11.4039 12.6565 11.4039H3.96926L4.71362 11.2295C5.40919 11.0667 6.04662 10.7491 6.55657 10.3109ZM4.46688 10.4526L1.13711 11.2326L2.04531 8.37262C2.19203 7.91027 2.47836 7.48664 2.87318 7.14735L7.03745 3.57081L10.058 6.16505L5.89373 9.74159C5.49868 10.0807 5.00521 10.3266 4.46688 10.4526ZM10.0182 1.93253L11.9655 3.60521C12.1088 3.72827 12.1878 3.89202 12.1878 4.06599C12.1878 4.23996 12.1088 4.40352 11.9655 4.52677L10.7208 5.59576L7.7003 3.00152L8.94495 1.93253C9.09304 1.80554 9.28713 1.74205 9.48168 1.74205C9.67577 1.74205 9.87032 1.80554 10.0182 1.93253Z" fill="#0086AF"/>
</svg>
