<svg width="15" height="15" viewBox="0 0 15 15" fill="none" xmlns="http://www.w3.org/2000/svg">
<path d="M14.4512 11.7073H13.1707V5.67073C13.1707 2.54415 10.6266 0 7.5 0C4.37341 0 1.82927 2.54415 1.82927 5.67073V11.7073H0.548781C0.245854 11.7073 0 11.9532 0 12.2561C0 12.559 0.245854 12.8049 0.548781 12.8049H4.81171C5.06707 14.0561 6.17561 15 7.5 15C8.82439 15 9.93366 14.0561 10.1883 12.8049H14.4512C14.7541 12.8049 15 12.559 15 12.2561C15 11.9532 14.7541 11.7073 14.4512 11.7073ZM7.5 13.9024C6.78585 13.9024 6.18219 13.4422 5.95463 12.8049H9.04463C8.81707 13.4422 8.21341 13.9024 7.49927 13.9024H7.5ZM12.0732 11.7073H2.92683V5.67073C2.92683 3.14927 4.97854 1.09756 7.5 1.09756C10.0215 1.09756 12.0732 3.14927 12.0732 5.67073V11.7073Z" fill="white"/>
</svg>
