<svg width="15" height="15" viewBox="0 0 15 15" fill="none" xmlns="http://www.w3.org/2000/svg">
<path d="M7.52674 7.2238C10.0435 7.2238 12.0783 5.60906 12.0783 3.6119C12.0783 1.61473 10.0435 0 7.52674 0C5.01002 0 2.97522 1.61473 2.97522 3.6119C2.97522 5.60906 5.01002 7.2238 7.52674 7.2238ZM7.52674 1.27479C9.15993 1.27479 10.4718 2.31586 10.4718 3.6119C10.4718 4.90793 9.15993 5.94901 7.52674 5.94901C5.89355 5.94901 4.58164 4.90793 4.58164 3.6119C4.58164 2.31586 5.89355 1.27479 7.52674 1.27479Z" fill="white"/>
<path d="M1.31529 15H13.7115C14.0595 15 14.4076 14.8725 14.6486 14.6813C14.8895 14.4688 15.0234 14.1926 14.9966 13.8952C14.7021 10.5382 11.4893 7.98865 7.5 7.98865C3.51073 7.98865 0.297888 10.517 0.00337835 13.8952C-0.0233953 14.1926 0.110473 14.4688 0.351436 14.6813C0.619173 14.8937 0.967229 15 1.31529 15ZM7.52677 9.26343C10.5522 9.26343 13.0421 11.1544 13.3902 13.7252H1.66334C2.0114 11.1756 4.50135 9.26343 7.52677 9.26343Z" fill="white"/>
</svg>
